<svg width="111" height="37" viewBox="0 0 111 37" fill="none" xmlns="http://www.w3.org/2000/svg">
<path d="M0 1L19 1C24.5228 1 29 5.47715 29 11V32C29 32.5523 28.5523 33 28 33H0L0 1Z" fill="white"></path>
<path d="M19.5 2C24.4706 2 28.5 6.02944 28.5 11C28.5 15.9706 24.4706 20 19.5 20H13.7314L27.626 31.29C27.918 31.5275 27.7504 31.9999 27.374 32H1.5V2H19.5Z" fill="#5A48D2"></path>
<path d="M43.768 1.076C44.8027 1.076 45.656 1.204 46.328 1.46C47 1.70533 47.5013 2.084 47.832 2.596C48.1627 3.09733 48.328 3.732 48.328 4.5C48.328 5.02267 48.2267 5.48133 48.024 5.876C47.832 6.26 47.5707 6.59067 47.24 6.868C46.92 7.13467 46.5733 7.35333 46.2 7.524L49.56 12.5H46.872L44.152 8.116H42.856V12.5H40.44V1.076H43.768ZM43.592 3.06H42.856V6.148H43.64C44.1733 6.148 44.6053 6.08933 44.936 5.972C45.2667 5.85467 45.5067 5.67867 45.656 5.444C45.8053 5.19867 45.88 4.90533 45.88 4.564C45.88 4.20133 45.7947 3.91333 45.624 3.7C45.464 3.476 45.2133 3.316 44.872 3.22C44.5413 3.11333 44.1147 3.06 43.592 3.06ZM58.7465 8.116C58.7465 8.84133 58.6452 9.48667 58.4425 10.052C58.2505 10.6173 57.9678 11.0973 57.5945 11.492C57.2318 11.876 56.7892 12.1693 56.2665 12.372C55.7438 12.564 55.1518 12.66 54.4905 12.66C53.8825 12.66 53.3172 12.564 52.7945 12.372C52.2825 12.1693 51.8398 11.876 51.4665 11.492C51.0932 11.0973 50.7998 10.6173 50.5865 10.052C50.3838 9.48667 50.2825 8.84133 50.2825 8.116C50.2825 7.14533 50.4532 6.32933 50.7945 5.668C51.1358 4.996 51.6265 4.484 52.2665 4.132C52.9065 3.78 53.6638 3.604 54.5385 3.604C55.3598 3.604 56.0852 3.78 56.7145 4.132C57.3438 4.484 57.8398 4.996 58.2025 5.668C58.5652 6.32933 58.7465 7.14533 58.7465 8.116ZM52.7145 8.116C52.7145 8.692 52.7732 9.17733 52.8905 9.572C53.0185 9.956 53.2158 10.2493 53.4825 10.452C53.7492 10.644 54.0958 10.74 54.5225 10.74C54.9492 10.74 55.2905 10.644 55.5465 10.452C55.8132 10.2493 56.0052 9.956 56.1225 9.572C56.2505 9.17733 56.3145 8.692 56.3145 8.116C56.3145 7.54 56.2505 7.06 56.1225 6.676C56.0052 6.292 55.8132 6.004 55.5465 5.812C55.2798 5.62 54.9332 5.524 54.5065 5.524C53.8772 5.524 53.4185 5.74267 53.1305 6.18C52.8532 6.60667 52.7145 7.252 52.7145 8.116ZM64.3008 3.588C65.4741 3.588 66.3701 3.844 66.9888 4.356C67.6181 4.85733 67.9328 5.63067 67.9328 6.676V12.5H66.2688L65.8048 11.316H65.7408C65.4954 11.6253 65.2394 11.8813 64.9728 12.084C64.7168 12.2867 64.4181 12.4307 64.0768 12.516C63.7461 12.612 63.3354 12.66 62.8448 12.66C62.3328 12.66 61.8688 12.564 61.4528 12.372C61.0474 12.1693 60.7274 11.8653 60.4928 11.46C60.2581 11.044 60.1408 10.5213 60.1408 9.892C60.1408 8.964 60.4661 8.28133 61.1168 7.844C61.7674 7.396 62.7434 7.15067 64.0448 7.108L65.5648 7.06V6.676C65.5648 6.21733 65.4421 5.88133 65.1968 5.668C64.9621 5.45467 64.6314 5.348 64.2048 5.348C63.7781 5.348 63.3621 5.412 62.9568 5.54C62.5514 5.65733 62.1461 5.80667 61.7408 5.988L60.9568 4.372C61.4261 4.12667 61.9434 3.93467 62.5088 3.796C63.0848 3.65733 63.6821 3.588 64.3008 3.588ZM64.6368 8.484C63.8688 8.50533 63.3354 8.644 63.0368 8.9C62.7381 9.156 62.5888 9.492 62.5888 9.908C62.5888 10.2707 62.6954 10.532 62.9088 10.692C63.1221 10.8413 63.3994 10.916 63.7408 10.916C64.2528 10.916 64.6848 10.7667 65.0368 10.468C65.3888 10.1587 65.5648 9.72667 65.5648 9.172V8.452L64.6368 8.484ZM80.629 3.604C81.621 3.604 82.3677 3.86 82.869 4.372C83.381 4.87333 83.637 5.684 83.637 6.804V12.5H81.253V7.396C81.253 6.76667 81.1463 6.29733 80.933 5.988C80.7197 5.668 80.389 5.508 79.941 5.508C79.3117 5.508 78.8637 5.732 78.597 6.18C78.3303 6.628 78.197 7.27333 78.197 8.116V12.5H75.813V7.396C75.813 6.98 75.765 6.63333 75.669 6.356C75.573 6.07867 75.429 5.87067 75.237 5.732C75.045 5.58267 74.7997 5.508 74.501 5.508C74.0637 5.508 73.717 5.62 73.461 5.844C73.205 6.068 73.0237 6.39333 72.917 6.82C72.8103 7.24667 72.757 7.76933 72.757 8.388V12.5H70.373V3.764H72.197L72.517 4.884H72.645C72.8263 4.58533 73.0503 4.34533 73.317 4.164C73.5837 3.972 73.877 3.83333 74.197 3.748C74.5277 3.652 74.8583 3.604 75.189 3.604C75.829 3.604 76.373 3.71067 76.821 3.924C77.269 4.12667 77.6103 4.44667 77.845 4.884H78.053C78.3197 4.436 78.6877 4.11067 79.157 3.908C79.637 3.70533 80.1277 3.604 80.629 3.604ZM88.4758 3.764V12.5H86.0918V3.764H88.4758ZM87.2918 0.339999C87.6438 0.339999 87.9478 0.425333 88.2038 0.596C88.4598 0.756 88.5878 1.06 88.5878 1.508C88.5878 1.94533 88.4598 2.24933 88.2038 2.42C87.9478 2.59067 87.6438 2.676 87.2918 2.676C86.9291 2.676 86.6198 2.59067 86.3638 2.42C86.1184 2.24933 85.9958 1.94533 85.9958 1.508C85.9958 1.06 86.1184 0.756 86.3638 0.596C86.6198 0.425333 86.9291 0.339999 87.2918 0.339999ZM95.9268 3.604C96.8654 3.604 97.6174 3.86 98.1828 4.372C98.7481 4.87333 99.0308 5.684 99.0308 6.804V12.5H96.6468V7.396C96.6468 6.76667 96.5348 6.29733 96.3108 5.988C96.0868 5.668 95.7294 5.508 95.2388 5.508C94.5134 5.508 94.0174 5.75867 93.7508 6.26C93.4841 6.75067 93.3508 7.46 93.3508 8.388V12.5H90.9668V3.764H92.7908L93.1108 4.884H93.2388C93.4308 4.58533 93.6654 4.34533 93.9427 4.164C94.2201 3.972 94.5294 3.83333 94.8708 3.748C95.2121 3.652 95.5641 3.604 95.9268 3.604ZM104.314 3.604C104.848 3.604 105.328 3.71067 105.754 3.924C106.181 4.13733 106.544 4.45733 106.842 4.884H106.906L107.098 3.764H109.114V12.516C109.114 13.348 108.949 14.0467 108.618 14.612C108.298 15.1773 107.813 15.604 107.162 15.892C106.512 16.1907 105.706 16.34 104.746 16.34C104.128 16.34 103.552 16.3027 103.018 16.228C102.496 16.1533 101.984 16.02 101.482 15.828V13.924C101.845 14.0733 102.208 14.196 102.57 14.292C102.944 14.3987 103.322 14.4733 103.706 14.516C104.101 14.5693 104.496 14.596 104.89 14.596C105.509 14.596 105.968 14.4307 106.266 14.1C106.576 13.7693 106.73 13.2733 106.73 12.612V12.436C106.73 12.2547 106.736 12.068 106.746 11.876C106.768 11.684 106.784 11.5133 106.794 11.364H106.73C106.432 11.8227 106.074 12.1533 105.658 12.356C105.242 12.5587 104.773 12.66 104.25 12.66C103.216 12.66 102.405 12.2653 101.818 11.476C101.242 10.676 100.954 9.56667 100.954 8.148C100.954 7.188 101.088 6.372 101.354 5.7C101.621 5.01733 102.005 4.5 102.506 4.148C103.018 3.78533 103.621 3.604 104.314 3.604ZM105.066 5.54C104.693 5.54 104.378 5.64133 104.122 5.844C103.877 6.036 103.69 6.32933 103.562 6.724C103.445 7.108 103.386 7.59333 103.386 8.18C103.386 9.05467 103.525 9.71067 103.802 10.148C104.08 10.5747 104.512 10.788 105.098 10.788C105.408 10.788 105.674 10.7507 105.898 10.676C106.122 10.5907 106.304 10.4573 106.442 10.276C106.592 10.084 106.704 9.83867 106.778 9.54C106.853 9.24133 106.89 8.87867 106.89 8.452V8.164C106.89 7.53467 106.826 7.028 106.698 6.644C106.57 6.26 106.373 5.98267 106.106 5.812C105.84 5.63067 105.493 5.54 105.066 5.54ZM49.912 26.676C49.912 27.956 49.6667 29.028 49.176 29.892C48.6853 30.756 47.9707 31.4067 47.032 31.844C46.104 32.2813 44.984 32.5 43.672 32.5H40.44V21.076H44.024C45.2187 21.076 46.2533 21.2893 47.128 21.716C48.0133 22.1427 48.696 22.772 49.176 23.604C49.6667 24.4253 49.912 25.4493 49.912 26.676ZM47.4 26.74C47.4 25.8973 47.2773 25.204 47.032 24.66C46.7867 24.116 46.4187 23.716 45.928 23.46C45.448 23.1933 44.856 23.06 44.152 23.06H42.856V30.5H43.896C45.08 30.5 45.96 30.1853 46.536 29.556C47.112 28.9267 47.4 27.988 47.4 26.74ZM54.4758 23.764V32.5H52.0918V23.764H54.4758ZM53.2918 20.34C53.6438 20.34 53.9478 20.4253 54.2038 20.596C54.4598 20.756 54.5878 21.06 54.5878 21.508C54.5878 21.9453 54.4598 22.2493 54.2038 22.42C53.9478 22.5907 53.6438 22.676 53.2918 22.676C52.9291 22.676 52.6198 22.5907 52.3638 22.42C52.1184 22.2493 51.9958 21.9453 51.9958 21.508C51.9958 21.06 52.1184 20.756 52.3638 20.596C52.6198 20.4253 52.9291 20.34 53.2918 20.34ZM59.7988 23.604C60.3321 23.604 60.8121 23.7107 61.2388 23.924C61.6654 24.1373 62.0281 24.4573 62.3268 24.884H62.3908L62.5828 23.764H64.5988V32.516C64.5988 33.348 64.4334 34.0467 64.1028 34.612C63.7828 35.1773 63.2974 35.604 62.6468 35.892C61.9961 36.1907 61.1908 36.34 60.2308 36.34C59.6121 36.34 59.0361 36.3027 58.5028 36.228C57.9801 36.1533 57.4681 36.02 56.9668 35.828V33.924C57.3294 34.0733 57.6921 34.196 58.0548 34.292C58.4281 34.3987 58.8068 34.4733 59.1908 34.516C59.5854 34.5693 59.9801 34.596 60.3748 34.596C60.9934 34.596 61.4521 34.4307 61.7508 34.1C62.0601 33.7693 62.2148 33.2733 62.2148 32.612V32.436C62.2148 32.2547 62.2201 32.068 62.2308 31.876C62.2521 31.684 62.2681 31.5133 62.2788 31.364H62.2148C61.9161 31.8227 61.5588 32.1533 61.1428 32.356C60.7268 32.5587 60.2574 32.66 59.7348 32.66C58.7001 32.66 57.8894 32.2653 57.3028 31.476C56.7268 30.676 56.4388 29.5667 56.4388 28.148C56.4388 27.188 56.5721 26.372 56.8388 25.7C57.1054 25.0173 57.4894 24.5 57.9908 24.148C58.5028 23.7853 59.1054 23.604 59.7988 23.604ZM60.5508 25.54C60.1774 25.54 59.8628 25.6413 59.6068 25.844C59.3614 26.036 59.1748 26.3293 59.0468 26.724C58.9294 27.108 58.8708 27.5933 58.8708 28.18C58.8708 29.0547 59.0094 29.7107 59.2868 30.148C59.5641 30.5747 59.9961 30.788 60.5828 30.788C60.8921 30.788 61.1588 30.7507 61.3828 30.676C61.6068 30.5907 61.7881 30.4573 61.9268 30.276C62.0761 30.084 62.1881 29.8387 62.2628 29.54C62.3374 29.2413 62.3748 28.8787 62.3748 28.452V28.164C62.3748 27.5347 62.3108 27.028 62.1828 26.644C62.0548 26.26 61.8574 25.9827 61.5908 25.812C61.3241 25.6307 60.9774 25.54 60.5508 25.54ZM69.4758 23.764V32.5H67.0918V23.764H69.4758ZM68.2918 20.34C68.6438 20.34 68.9478 20.4253 69.2038 20.596C69.4598 20.756 69.5878 21.06 69.5878 21.508C69.5878 21.9453 69.4598 22.2493 69.2038 22.42C68.9478 22.5907 68.6438 22.676 68.2918 22.676C67.9291 22.676 67.6198 22.5907 67.3638 22.42C67.1184 22.2493 66.9958 21.9453 66.9958 21.508C66.9958 21.06 67.1184 20.756 67.3638 20.596C67.6198 20.4253 67.9291 20.34 68.2918 20.34ZM75.6468 30.756C75.9134 30.756 76.1694 30.7293 76.4148 30.676C76.6601 30.6227 76.9054 30.5587 77.1508 30.484V32.26C76.8948 32.3667 76.5748 32.4573 76.1908 32.532C75.8174 32.6173 75.4068 32.66 74.9588 32.66C74.4361 32.66 73.9668 32.5747 73.5508 32.404C73.1454 32.2333 72.8201 31.94 72.5748 31.524C72.3401 31.0973 72.2228 30.5107 72.2228 29.764V25.556H71.0868V24.548L72.3988 23.748L73.0868 21.908H74.6068V23.764H77.0548V25.556H74.6068V29.764C74.6068 30.0947 74.7028 30.3453 74.8948 30.516C75.0868 30.676 75.3374 30.756 75.6468 30.756ZM82.4883 23.588C83.6616 23.588 84.5576 23.844 85.1763 24.356C85.8056 24.8573 86.1203 25.6307 86.1203 26.676V32.5H84.4563L83.9923 31.316H83.9283C83.6829 31.6253 83.4269 31.8813 83.1603 32.084C82.9043 32.2867 82.6056 32.4307 82.2643 32.516C81.9336 32.612 81.5229 32.66 81.0323 32.66C80.5203 32.66 80.0563 32.564 79.6403 32.372C79.2349 32.1693 78.9149 31.8653 78.6803 31.46C78.4456 31.044 78.3283 30.5213 78.3283 29.892C78.3283 28.964 78.6536 28.2813 79.3043 27.844C79.9549 27.396 80.9309 27.1507 82.2323 27.108L83.7523 27.06V26.676C83.7523 26.2173 83.6296 25.8813 83.3843 25.668C83.1496 25.4547 82.8189 25.348 82.3923 25.348C81.9656 25.348 81.5496 25.412 81.1443 25.54C80.7389 25.6573 80.3336 25.8067 79.9283 25.988L79.1443 24.372C79.6136 24.1267 80.1309 23.9347 80.6963 23.796C81.2723 23.6573 81.8696 23.588 82.4883 23.588ZM82.8243 28.484C82.0563 28.5053 81.5229 28.644 81.2243 28.9C80.9256 29.156 80.7763 29.492 80.7763 29.908C80.7763 30.2707 80.8829 30.532 81.0963 30.692C81.3096 30.8413 81.5869 30.916 81.9283 30.916C82.4403 30.916 82.8723 30.7667 83.2243 30.468C83.5763 30.1587 83.7523 29.7267 83.7523 29.172V28.452L82.8243 28.484ZM90.9445 32.5H88.5605V20.34H90.9445V32.5ZM99.5315 29.908C99.5315 30.4947 99.3928 30.996 99.1155 31.412C98.8382 31.8173 98.4222 32.1267 97.8675 32.34C97.3128 32.5533 96.6248 32.66 95.8035 32.66C95.1955 32.66 94.6728 32.6173 94.2355 32.532C93.7982 32.4573 93.3608 32.3293 92.9235 32.148V30.18C93.3928 30.3933 93.8995 30.5693 94.4435 30.708C94.9875 30.8467 95.4675 30.916 95.8835 30.916C96.3528 30.916 96.6835 30.8467 96.8755 30.708C97.0782 30.5693 97.1795 30.388 97.1795 30.164C97.1795 30.0147 97.1368 29.8813 97.0515 29.764C96.9768 29.6467 96.8062 29.5133 96.5395 29.364C96.2728 29.2147 95.8568 29.0227 95.2915 28.788C94.7475 28.5533 94.2995 28.324 93.9475 28.1C93.5955 27.8653 93.3342 27.588 93.1635 27.268C92.9928 26.9373 92.9075 26.5267 92.9075 26.036C92.9075 25.2253 93.2222 24.6173 93.8515 24.212C94.4808 23.8067 95.3182 23.604 96.3635 23.604C96.9075 23.604 97.4248 23.6573 97.9155 23.764C98.4062 23.8707 98.9128 24.0467 99.4355 24.292L98.7155 26.004C98.4275 25.876 98.1502 25.764 97.8835 25.668C97.6168 25.572 97.3555 25.4973 97.0995 25.444C96.8542 25.3907 96.5982 25.364 96.3315 25.364C95.9795 25.364 95.7128 25.412 95.5315 25.508C95.3608 25.604 95.2755 25.748 95.2755 25.94C95.2755 26.0787 95.3182 26.2067 95.4035 26.324C95.4995 26.4307 95.6755 26.548 95.9315 26.676C96.1982 26.804 96.5875 26.9747 97.0995 27.188C97.6008 27.3907 98.0328 27.604 98.3955 27.828C98.7582 28.0413 99.0355 28.3133 99.2275 28.644C99.4302 28.964 99.5315 29.3853 99.5315 29.908Z" fill="white"></path>
</svg>
