<svg xmlns="http://www.w3.org/2000/svg" width="42" height="42" viewBox="0 0 42 42">
  <g id="Download" transform="translate(-742 -470)">
    <g id="Ellipse_1450" data-name="Ellipse 1450" transform="translate(742 470)" fill="#fff" stroke="#ddf" stroke-width="2">
      <circle cx="21" cy="21" r="21" stroke="none"/>
      <circle cx="21" cy="21" r="20" fill="none"/>
    </g>
    <g id="Download_qr" data-name="Download qr" transform="translate(296.521 -87)">
      <path id="download_1_" data-name="download (1)" d="M76.712,13.347l-.134.345a1.907,1.907,0,0,0-.548-.191c-.172,0-.113.268-.238.394s-.351-.721-.351-.548a.61.61,0,0,0,.188.447c.126.126-.534-.506-.363-.506s.542.185.667.059S76.712,13.347,76.712,13.347Zm2.034,1.561A17.235,17.235,0,0,0,76.8,13.5c-.126-.126.768-.739.6-.739s.9.011.772.137a.61.61,0,0,0-.188.447c0,.172,1.257-.34,1.383-.214s-.92.85-.747.85a.61.61,0,0,0,.447-.188C79.19,13.668,78.746,15.08,78.746,14.908Zm1.779-3.786V14.3a.95.95,0,0,1-.953.953H64.953A.95.95,0,0,1,64,14.3V11.122a.95.95,0,0,1,.953-.953h4.614l1.344,1.348a1.918,1.918,0,0,0,2.7,0l1.351-1.351h4.608a.95.95,0,0,1,.953.953ZM77.3,5.471a.574.574,0,0,1-.139.695L72.71,10.615a.624.624,0,0,1-.894,0L67.366,6.167a.574.574,0,0,1-.139-.695.593.593,0,0,1,.586-.387h2.542V.635a.61.61,0,0,1,.188-.447A.61.61,0,0,1,70.991,0h2.542a.61.61,0,0,1,.447.188.61.61,0,0,1,.188.447V5.085h2.542a.593.593,0,0,1,.587.387Z" transform="translate(394.479 570)" fill="#5b398e"/>
      <rect id="Rectangle_4450" data-name="Rectangle 4450" width="3.813" height="1.144" rx="0.572" transform="translate(469.554 582.203)" fill="#fff"/>
    </g>
  </g>
</svg>
