<svg xmlns="http://www.w3.org/2000/svg" width="72" height="72" viewBox="0 0 72 72">
  <g id="qr" transform="translate(-152 -314)">
    <g id="Ellipse_1448" data-name="Ellipse 1448" transform="translate(152 314)" fill="#fff" stroke="#c3b7d6" stroke-width="1">
      <circle cx="36" cy="36" r="36" stroke="none"/>
      <circle cx="36" cy="36" r="35.5" fill="none"/>
    </g>
    <g id="Ellipse_1449" data-name="Ellipse 1449" transform="translate(156 318)" fill="rgba(92,58,143,0.1)" stroke="#c3b7d6" stroke-width="1">
      <circle cx="32" cy="32" r="32" stroke="none"/>
      <circle cx="32" cy="32" r="31.5" fill="none"/>
    </g>
    <g id="Group_6266" data-name="Group 6266" transform="translate(171.329 333.328)">
      <path id="Path_8833" data-name="Path 8833" d="M1.042,11.809A1.05,1.05,0,0,1,0,10.767V7.294A7.3,7.3,0,0,1,7.294,0h3.473a1.05,1.05,0,0,1,1.042,1.042,1.05,1.05,0,0,1-1.042,1.042H7.294a5.212,5.212,0,0,0-5.21,5.21v3.473a1.05,1.05,0,0,1-1.042,1.042Z" transform="translate(1.737 1.737)" fill="#5c3a8f"/>
      <path id="Path_8834" data-name="Path 8834" d="M10.767,11.809a1.05,1.05,0,0,1-1.042-1.042V7.294a5.212,5.212,0,0,0-5.21-5.21H1.042A1.05,1.05,0,0,1,0,1.042,1.05,1.05,0,0,1,1.042,0H4.515a7.3,7.3,0,0,1,7.294,7.294v3.473A1.05,1.05,0,0,1,10.767,11.809Z" transform="translate(19.798 1.737)" fill="#5c3a8f"/>
      <path id="Path_8835" data-name="Path 8835" d="M3.126,10.42H1.042a1.042,1.042,0,1,1,0-2.084H3.126a5.212,5.212,0,0,0,5.21-5.21V1.042a1.042,1.042,0,1,1,2.084,0V3.126A7.3,7.3,0,0,1,3.126,10.42Z" transform="translate(21.187 21.187)" fill="#5c3a8f"/>
      <path id="Path_8836" data-name="Path 8836" d="M10.767,11.809H7.294A7.3,7.3,0,0,1,0,4.515V1.042A1.05,1.05,0,0,1,1.042,0,1.05,1.05,0,0,1,2.084,1.042V4.515a5.212,5.212,0,0,0,5.21,5.21h3.473a1.042,1.042,0,0,1,0,2.084Z" transform="translate(1.737 19.798)" fill="#5c3a8f"/>
      <path id="Path_8837" data-name="Path 8837" d="M8,4A4,4,0,1,1,4,0,4,4,0,0,1,8,4Z" transform="translate(7.808 7.808)" fill="#5c3a8f"/>
      <path id="Path_8838" data-name="Path 8838" d="M5.224,2.612A2.612,2.612,0,1,1,2.612,0,2.612,2.612,0,0,1,5.224,2.612Z" transform="translate(7.808 20.312)" fill="#5c3a8f"/>
      <path id="Path_8839" data-name="Path 8839" d="M5.224,2.612A2.612,2.612,0,1,1,2.612,0,2.612,2.612,0,0,1,5.224,2.612Z" transform="translate(20.312 7.808)" fill="#5c3a8f"/>
      <path id="Path_8840" data-name="Path 8840" d="M8,4A4,4,0,1,1,4,0,4,4,0,0,1,8,4Z" transform="translate(17.533 17.533)" fill="#5c3a8f"/>
      <path id="Path_8841" data-name="Path 8841" d="M0,0H33.344V33.344H0Z" transform="translate(33.344 33.344) rotate(180)" fill="none" opacity="0"/>
    </g>
    <line id="Line_330" data-name="Line 330" y2="55.102" transform="translate(172.399 322.449)" fill="none" stroke="#c3b7d6" stroke-width="1"/>
    <line id="Line_331" data-name="Line 331" y2="55.102" transform="translate(203.601 322.449)" fill="none" stroke="#c3b7d6" stroke-width="1"/>
    <line id="Line_332" data-name="Line 332" y2="55.102" transform="translate(160.449 365.601) rotate(-90)" fill="none" stroke="#c3b7d6" stroke-width="1"/>
    <line id="Line_333" data-name="Line 333" y2="55.102" transform="translate(160.449 334.399) rotate(-90)" fill="none" stroke="#c3b7d6" stroke-width="1"/>
  </g>
</svg>
