<svg xmlns="http://www.w3.org/2000/svg" width="42" height="42" viewBox="0 0 42 42">
  <g id="Share" transform="translate(-587 -470)">
    <g id="Ellipse_1452" data-name="Ellipse 1452" transform="translate(587 470)" fill="#fff" stroke="#ddf" stroke-width="2">
      <circle cx="21" cy="21" r="21" stroke="none"/>
      <circle cx="21" cy="21" r="20" fill="none"/>
    </g>
    <g id="Group_6268" data-name="Group 6268" transform="translate(-2733.012 -3972.979)">
      <path id="Path_8848" data-name="Path 8848" d="M0,0H18V18H0Z" transform="translate(3350.012 4472.979) rotate(180)" fill="none" opacity="0"/>
      <path id="Path_8849" data-name="Path 8849" d="M9.33,8.56a2.519,2.519,0,0,0-1.584.558L5.031,7.4a2.6,2.6,0,0,0,0-1.118L7.746,4.578a2.522,2.522,0,0,0,3.272-.1,2.579,2.579,0,0,0,.461-3.27A2.528,2.528,0,0,0,8.363.2,2.567,2.567,0,0,0,6.847,3.127L4.13,4.836A2.528,2.528,0,0,0,.679,5.1a2.584,2.584,0,0,0,0,3.491,2.528,2.528,0,0,0,3.45.263l2.715,1.713A2.577,2.577,0,0,0,7.983,13.3a2.526,2.526,0,0,0,2.936-.176,2.581,2.581,0,0,0,.809-2.853,2.546,2.546,0,0,0-2.4-1.717Z" transform="translate(3335.061 4457.152)" fill="#6b4898"/>
    </g>
  </g>
</svg>
